<?xml version="1.0" encoding="utf-8"?>
<!-- Generator: Adobe Illustrator 18.1.1, SVG Export Plug-In . SVG Version: 6.00 Build 0)  -->
<svg version="1.1" id="Layer_1" xmlns="http://www.w3.org/2000/svg" xmlns:xlink="http://www.w3.org/1999/xlink" x="0px" y="0px"
	 viewBox="0 0 425.2 425.2" enable-background="new 0 0 425.2 425.2" xml:space="preserve">
<path fill="#FFE0B2" d="M211.7,213l-0.9,2.1c-1.9,4.6-7.2,6.8-11.8,4.9l-25.3-10.5c-4.6-1.9-6.8-7.2-4.9-11.8l0.9-2.1
	c1.9-4.6,7.2-6.8,11.8-4.9l25.3,10.5C211.4,203.1,213.6,208.4,211.7,213z"/>
<path fill="#FECC81" d="M79.9,239.5L79.9,239.5c-4.6-1.8-6.9-7.1-5.1-11.7L85,202.3c1.8-4.6,7.1-6.9,11.7-5.1h0
	c4.6,1.8,6.9,7.1,5.1,11.7l-10.1,25.5C89.8,239.1,84.5,241.3,79.9,239.5z"/>
<circle fill="#C62828" cx="134.4" cy="216.6" r="33.8"/>
<circle fill="#D74527" cx="109.8" cy="130.6" r="13.4"/>
<ellipse fill="#FFE0B2" cx="107.6" cy="148.6" rx="6.7" ry="7.4"/>
<ellipse fill="#FFE0B2" cx="161" cy="148.6" rx="6.7" ry="7.4"/>
<ellipse fill="#F79D81" cx="161" cy="148.6" rx="3.6" ry="3.9"/>
<circle fill="#FECC81" cx="134.5" cy="183.6" r="10.8"/>
<ellipse fill="#F79D81" cx="107.6" cy="148.6" rx="3.6" ry="3.9"/>
<path fill="#D74527" d="M169.2,133.6c0,7.4-6,13.4-13.4,13.4s-13.4-6-13.4-13.4c0-7.4,6-13.4,13.4-13.4S169.2,126.3,169.2,133.6z"/>
<path fill="#FFE0B2" d="M134.5,186.5L134.5,186.5c-14.7,0-26.7-12-26.7-26.7v-23.4c0-14.7,12-26.7,26.7-26.7h0
	c14.7,0,26.7,12,26.7,26.7v23.4C161.2,174.5,149.2,186.5,134.5,186.5z"/>
<path opacity="0.25" fill="#9D9D9D" d="M161.1,130.6v6c-6.4,0-12.6-3.5-15.6-8.7c-0.7,0.1-0.8,0.1-1.6,0.1c-2.1,0-3.9,0-5.8-0.7
	c-3.1,3.8-8,5.9-13.3,5.9c-3.1,0-6-0.9-8.5-2.3c-2.5,1.5-5.4,2.3-8.6,2.3v-2.5c0-14.9,12-27.2,26.6-27.2h0
	C149.1,103.4,161.1,115.6,161.1,130.6z"/>
<circle fill="#E44C25" cx="107.6" cy="114.9" r="17.1"/>
<circle fill="#E44C25" cx="124.8" cy="114.9" r="17.1"/>
<circle fill="#E44C25" cx="126.4" cy="101.2" r="17.1"/>
<circle fill="#E44C25" cx="161" cy="118.3" r="17.1"/>
<circle fill="#E44C25" cx="143.9" cy="109.8" r="17.1"/>
<circle fill="#E44C25" cx="148.1" cy="101.2" r="17.1"/>
<circle fill="#212121" cx="123.8" cy="145.2" r="2.4"/>
<circle fill="#212121" cx="145.3" cy="145.2" r="2.4"/>
<path opacity="0.26" fill="#607D8B" d="M130.1,151.8c-3.6,3.6-9.3,3.6-12.9,0c-1.8-1.8-2.6-4.1-2.7-6.4h-2c0,2.8,1.1,5.6,3.3,7.8
	c4.4,4.4,11.4,4.4,15.8,0L130.1,151.8z"/>
<path opacity="0.26" fill="#607D8B" d="M151.7,151.8c-3.6,3.6-9.3,3.6-12.9,0c-1.8-1.8-2.6-4.1-2.7-6.4h-2c0,2.8,1.1,5.6,3.3,7.8
	c4.4,4.4,11.4,4.4,15.8,0L151.7,151.8z"/>
<path fill="#F79D81" d="M134.5,164.8L134.5,164.8c-1.7,0-3-1.3-3-3v-11.1c0-1.6,1.3-3,3-3h0c1.6,0,3,1.4,3,3v11.1
	C137.5,163.5,136.2,164.8,134.5,164.8z"/>
<path d="M123.8,134.7c-5.8,0-10.6,4.7-10.6,10.6s4.7,10.6,10.6,10.6s10.6-4.7,10.6-10.6S129.6,134.7,123.8,134.7z M123.8,153.9
	c-4.8,0-8.6-3.9-8.6-8.6c0-4.8,3.9-8.6,8.6-8.6c4.8,0,8.6,3.9,8.6,8.6C132.4,150,128.5,153.9,123.8,153.9z"/>
<path d="M145.3,134.7c-5.8,0-10.6,4.7-10.6,10.6s4.7,10.6,10.6,10.6c5.8,0,10.6-4.7,10.6-10.6S151.1,134.7,145.3,134.7z
	 M145.3,153.9c-4.8,0-8.6-3.9-8.6-8.6c0-4.8,3.9-8.6,8.6-8.6c4.8,0,8.6,3.9,8.6,8.6C153.9,150,150,153.9,145.3,153.9z"/>
<path fill="#B72025" d="M146.2,171.3c-0.2,0.7-0.5,1.4-0.8,2c0,0.1-0.1,0.2-0.2,0.3c-0.9,1.7-2.1,3.1-3.6,4.2
	c-2,1.4-4.4,2.2-6.9,2.2c-2.6,0-5-0.8-6.9-2.2c-1.5-1.1-2.8-2.5-3.6-4.2c0-0.1-0.1-0.2-0.2-0.3c-0.3-0.6-0.6-1.3-0.8-2H146.2z"/>
<path fill="#EF5451" d="M141.7,177.7c-2,1.4-4.4,2.2-6.9,2.2c-2.6,0-5-0.8-6.9-2.2c2-1.4,4.3-2.2,6.9-2.2
	C137.3,175.5,139.7,176.3,141.7,177.7z"/>
<rect x="107.8" y="144" width="5.8" height="2.4"/>
<rect x="155.3" y="144" width="5.8" height="2.4"/>
<rect x="133" y="144.2" width="3.1" height="2.4"/>
<path opacity="0.74" fill="#FFFFFF" d="M121.3,138.4c0.4,0.5,1,0.8,1.7,0.7c0.2,0,0.4,0,0.6,0c2.9,0,5.3,1.9,6,4.6
	c0.2,0.7,0.7,1.3,1.5,1.4l0.2,0c-0.1-4.1-3.5-7.4-7.6-7.4c-0.9,0-1.8,0.2-2.5,0.4L121.3,138.4z"/>
<path opacity="0.74" fill="#FFFFFF" d="M142.7,138.5c0.4,0.5,1.1,0.7,1.7,0.6c0.2,0,0.4-0.1,0.6-0.1c2.9-0.1,5.4,1.7,6.2,4.3
	c0.2,0.7,0.8,1.2,1.5,1.3l0.2,0c-0.3-4.1-3.8-7.2-7.9-7c-0.9,0-1.7,0.2-2.5,0.6L142.7,138.5z"/>
<path opacity="0.58" fill="#F37046" d="M167,106.7L167,106.7c-0.2,0.4,0,0.9,0.4,1.1c3.8,1.9,6.4,5.9,6.4,10.4c0,0.5,0,1.1-0.1,1.6
	c-0.1,0.4,0.2,0.8,0.7,0.9l0,0c0.5,0.1,0.9-0.2,1-0.7c0.1-0.6,0.1-1.2,0.1-1.8c0-5.2-3-9.8-7.4-12C167.7,106,167.2,106.2,167,106.7z
	"/>
<path opacity="0.58" fill="#F37046" d="M152.4,88.4L152.4,88.4c-0.1,0.4,0.1,0.9,0.6,1c4.1,1.3,7.3,4.8,8,9.3
	c0.1,0.5,0.1,1.1,0.1,1.6c0,0.4,0.4,0.8,0.8,0.8l0,0c0.5,0,0.9-0.4,0.9-0.9c0-0.6-0.1-1.2-0.2-1.8c-0.8-5.2-4.5-9.2-9.2-10.6
	C153,87.7,152.5,88,152.4,88.4z"/>
<path fill="#FFFFFF" d="M146.2,171.3c-0.2,0.7-0.5,1.4-0.8,2c0,0.1-0.1,0.2-0.2,0.3h-21.2c0-0.1-0.1-0.2-0.2-0.3
	c-0.3-0.6-0.6-1.3-0.8-2H146.2z"/>
<rect x="100.7" y="216.6" fill="#C62828" width="67.5" height="23.4"/>
<g>
	
		<rect x="164.7" y="190" transform="matrix(0.3768 -0.9263 0.9263 0.3768 -76.4278 288.8346)" fill="#C62828" width="23.5" height="22.5"/>
	<circle fill="#C62828" cx="166" cy="197" r="11.7"/>
</g>
<g>
	
		<rect x="81.6" y="201.1" transform="matrix(0.9263 0.3768 -0.3768 0.9263 86.8975 -19.4997)" fill="#C62828" width="23.5" height="22.5"/>
	<circle fill="#C62828" cx="97.5" cy="201.9" r="11.7"/>
</g>
<path fill="#FFE0B2" d="M214.8,241.5c-0.1,1.5-0.6,2.8-1.5,3.7c-2.9,2.9-8.8,1.6-13.3-2.8c-0.7-0.7-1.3-1.4-1.8-2.1l0.8-0.6
	L214.8,241.5z"/>
<rect x="48.5" y="240" fill="#6D4D42" width="346.6" height="12.1"/>
<g>
	<path fill="#FFECB2" d="M377,231.4c0,3.5-2.1,6.6-5.1,8h-72.6c0.1-0.4,0.2-0.9,0.2-1.3c0.3-2.1,0.5-4.4,0.5-6.6
		c0-2.3-0.2-4.5-0.5-6.7c-0.1-0.4-0.2-0.9-0.2-1.3h72.6C374.9,224.8,377,227.8,377,231.4z"/>
	<path fill="#C62828" d="M377,231.4c0,3.5-2.1,6.6-5.1,8c-1.1,0.5-2.4,0.8-3.7,0.8h-71.4c0.2-0.7,0.4-1.4,0.6-2.1H368
		c3.7,0,6.7-3,6.7-6.7c0-3.7-3-6.7-6.7-6.7h-70.6c-0.2-0.7-0.3-1.4-0.6-2.1h71.4c1.3,0,2.5,0.3,3.7,0.8
		C374.9,224.8,377,227.8,377,231.4z"/>
</g>
<g>
	<path fill="#FFECB2" d="M374.6,196.5c0,3.5-2.1,6.6-5.1,8h-72.6c0.1-0.4,0.2-0.9,0.2-1.3c0.3-2.1,0.5-4.4,0.5-6.6
		c0-2.3-0.2-4.5-0.5-6.7c-0.1-0.4-0.2-0.9-0.2-1.3h72.6C372.5,189.9,374.6,192.9,374.6,196.5z"/>
	<path fill="#568B3E" d="M374.6,196.5c0,3.5-2.1,6.6-5.1,8c-1.1,0.5-2.4,0.8-3.7,0.8h-71.4c0.2-0.7,0.4-1.4,0.6-2.1h70.6
		c3.7,0,6.7-3,6.7-6.7c0-3.7-3-6.7-6.7-6.7H295c-0.2-0.7-0.3-1.4-0.6-2.1h71.4c1.3,0,2.5,0.3,3.7,0.8
		C372.5,189.9,374.6,192.9,374.6,196.5z"/>
</g>
<g>
	<path fill="#FFECB2" d="M299.2,214c0-3.5,1.9-6.6,4.5-8h64c-0.1,0.4-0.1,0.9-0.2,1.3c-0.3,2.1-0.5,4.4-0.5,6.6
		c0,2.3,0.2,4.5,0.5,6.7c0.1,0.4,0.1,0.9,0.2,1.3h-64C301.1,220.5,299.2,217.5,299.2,214z"/>
	<path fill="#E45325" d="M299.2,214c0-3.5,1.9-6.6,4.5-8c1-0.5,2.1-0.8,3.2-0.8h62.9c-0.2,0.7-0.4,1.4-0.5,2.1h-62.3
		c-3.3,0-5.9,3-5.9,6.7c0,3.7,2.6,6.7,5.9,6.7h62.3c0.1,0.7,0.3,1.4,0.5,2.1h-62.9c-1.1,0-2.2-0.3-3.2-0.8
		C301.1,220.5,299.2,217.5,299.2,214z"/>
</g>
<g>
	<path fill="#FFECB2" d="M299.2,178.9c0-3.5,1.8-6.6,4.5-8h63.1c-0.1,0.4-0.1,0.9-0.2,1.3c-0.3,2.1-0.5,4.4-0.5,6.6
		c0,2.3,0.2,4.5,0.5,6.7c0.1,0.4,0.1,0.9,0.2,1.3h-63.1C301,185.4,299.2,182.4,299.2,178.9z"/>
	<path fill="#04897B" d="M299.2,178.9c0-3.5,1.8-6.6,4.5-8c1-0.5,2-0.8,3.2-0.8h62c-0.2,0.7-0.3,1.4-0.5,2.1H307
		c-3.2,0-5.8,3-5.8,6.7c0,3.7,2.6,6.7,5.8,6.7h61.3c0.1,0.7,0.3,1.4,0.5,2.1h-62c-1.1,0-2.2-0.3-3.2-0.8
		C301,185.4,299.2,182.4,299.2,178.9z"/>
</g>
<path fill="#04897B" d="M298.8,140.1l-0.8,9.4l-7.1,89.2c-2.6,1.4-5.2,2-7.9,1.8c-2.7-0.2-5.2-1.3-7.5-3.1l0.2-2.2l7-87.8l0.7-8.6
	c0,0,0,0,0,0c2.1,1.6,4.7,2.6,7.5,2.8C293.7,141.9,296.4,141.3,298.8,140.1z"/>
<path fill="#016064" d="M298,148.2l-0.2,2.4l0,0l-0.1,0.1c-2.3,1.2-5,1.8-7.7,1.5c-2.8-0.2-5.3-1.2-7.5-2.8l0.2-2.5
	c2.1,1.6,4.7,2.6,7.5,2.9C293,150,295.7,149.4,298,148.2z"/>
<path fill="#016064" d="M291.5,230.9l-0.2,2.4l0,0l-0.1,0.1c-2.3,1.2-5,1.8-7.7,1.5c-2.8-0.2-5.3-1.2-7.5-2.8l0.2-2.5
	c2.1,1.6,4.7,2.6,7.5,2.9C286.5,232.7,289.1,232.1,291.5,230.9z"/>
<path fill="#F47C20" d="M272.8,165.7c-2.8-0.2-5.4-1-7.5-2.3l-5.9,74.6c2.3,1.4,4.9,2.2,7.5,2.5c2.7,0.2,5.3-0.2,7.8-1.2l5.9-74.6
	C278.3,165.6,275.6,166,272.8,165.7z"/>
<path fill="#4CB6AC" d="M255.8,190c-2.7-0.9-5-2.1-7-3.5L233,235.8c2.1,1.5,4.4,2.8,6.9,3.6c2.6,0.8,5.2,1.2,7.7,1.1l15.8-49.3
	C261.1,191.2,258.5,190.8,255.8,190z"/>
<path fill="#FFE0B2" d="M215.9,223.3L215.9,223.3c-5.3,0.4-9.9-3.5-10.3-8.8l-5.2-65.5c-0.4-5.3,3.5-9.9,8.8-10.3h0
	c5.3-0.4,9.9,3.5,10.3,8.8l5.2,65.5C225.1,218.2,221.2,222.8,215.9,223.3z"/>
<path fill="#FFFFFF" d="M225.8,211.6L225.8,211.6c0,2.4-0.6,4.7-1.7,6.9c-3.8,7.3-12.6,10.2-20,6.8l-1.2,2.3
	c-0.2-0.1-0.4-0.2-0.6-0.3c-0.3-0.2-0.7-0.4-1-0.5l1.2-2.3c-1-0.6-1.9-1.3-2.6-2.1c-3.9-3.8-5.5-9.4-4.1-14.7
	c0.3-1.1,0.7-2.2,1.2-3.2c0.5-1,1.1-1.9,1.9-2.8c3.5-4.2,9-6.2,14.4-5.2c1.2,0.2,2.4,0.6,3.6,1.1l1.2-2.3c0.3,0.1,0.5,0.2,0.8,0.4
	c0.3,0.1,0.5,0.3,0.8,0.4l-1.2,2.3c2.2,1.3,4,3.1,5.2,5.1C225.1,205.9,225.9,208.7,225.8,211.6z"/>
<path d="M211.1,232.2"/>
<g>
	<rect x="209.2" y="230.6" width="2.1" height="5.6"/>
	<path fill="#F9A01B" d="M227.3,201.2c-1.6-2.7-4-5-6.9-6.7c-0.3-0.2-0.5-0.3-0.8-0.5c-0.3-0.1-0.5-0.3-0.8-0.4
		c-1.6-0.7-3.2-1.3-4.8-1.5l-0.3,1.7c1.5,0.3,2.9,0.7,4.3,1.4l-1.2,2.3c-1.2-0.5-2.3-0.9-3.6-1.1l-2.7,15.5L200,222.4
		c0.8,0.8,1.7,1.5,2.6,2.1l-1.2,2.3c-1.2-0.7-2.3-1.6-3.3-2.5l-1.2,1.2c1.1,1.1,2.3,2,3.7,2.8c0.3,0.2,0.6,0.4,1,0.6
		c0.2,0.1,0.4,0.2,0.5,0.3c9.5,4.6,21,0.8,25.8-8.6c1.5-2.8,2.2-5.8,2.2-8.8l0,0C230.2,208,229.2,204.4,227.3,201.2z M228.5,211.6
		c0,2.7-0.7,5.5-2,8.1c-4.5,8.6-14.9,12-23.5,7.9l1.2-2.3c7.4,3.5,16.2,0.5,20-6.8c1.2-2.2,1.7-4.5,1.7-6.9v0c0-2.8-0.8-5.7-2.2-8.1
		c-1.3-2.1-3-3.8-5.2-5.1l1.2-2.3c2.6,1.5,4.7,3.7,6.2,6.1C227.6,205,228.5,208.3,228.5,211.6L228.5,211.6z"/>
	<polygon fill="#F9A01B" points="221.2,193.1 220.4,194.5 219.6,196 218.4,198.3 218.3,198.5 216.8,197.6 216.8,197.5 218.1,195.2 
		218.9,193.7 219.6,192.3 	"/>
	<path fill="#F9A01B" d="M204.1,225.3L204.1,225.3l-1.2,2.3l-0.8,1.5l-0.8,1.5l-1.5-0.8l0.8-1.5l0.8-1.5l1.2-2.3c0,0,0,0,0,0
		L204.1,225.3z"/>
	<path fill="#57A0D7" d="M225.8,211.6L225.8,211.6c0,2.4-0.6,4.7-1.7,6.9c-3.8,7.3-12.6,10.2-20,6.8c-0.2-0.1-0.4-0.2-0.6-0.3
		c-0.3-0.2-0.6-0.3-0.9-0.5c0,0,0,0,0,0c-1-0.6-1.9-1.3-2.6-2.1c-3.9-3.8-5.5-9.4-4.1-14.7c0.3-1.1,0.7-2.2,1.2-3.2
		c0.5-1,1.1-1.9,1.9-2.8c3.5-4.2,9-6.2,14.4-5.2c1.2,0.2,2.4,0.6,3.6,1.1c0.3,0.1,0.5,0.2,0.8,0.4c0.3,0.1,0.5,0.3,0.8,0.4
		c2.2,1.3,4,3.1,5.2,5.1C225.1,205.9,225.9,208.7,225.8,211.6z"/>
	<path fill="#9CCC65" d="M225.8,211.6c0,0-3.7,3.1-5,4.6c-1.2,1.5-1.3-1.4-1.3-1.4s-3.6-5.2-4.2-5.4c-0.6-0.2-3.6,0.5-4.9,1
		c-1.3,0.5-0.7-1.6-0.7-1.6s0.3-2.2,0.1-2.9c-0.2-0.7-1.7-1.4-1.7-1.4s-3.6-6.3,1.1-3.9c4.6,2.3,14,2.8,14.5,2.8
		C225.1,205.9,225.9,208.7,225.8,211.6L225.8,211.6z"/>
	<path fill="#9CCC65" d="M198.5,215.6c0,0-3.3-4.7-2.6-8c0.3-1.1,0.7-2.2,1.2-3.2c0.5-1,1.1-1.9,1.9-2.8c0,0,2,2.6,5.1,1.8
		c3.1-0.8-3.1,7.8-2.9,11C201.3,217.7,198.5,215.6,198.5,215.6z"/>
	<path fill="#9CCC65" d="M204.1,217.2c0.1-0.5,0.2-3,1.9-2.2c1.7,0.8,3,3.7,5.1,4.3c2.2,0.6-0.1,2.1-0.1,2.1s-2.2,1.3-4.6,0
		C204.1,220,204.1,217.2,204.1,217.2z"/>
	<path d="M223,239.5L223,239.5c0,0.5-0.7,0.9-1.5,0.9h-23.2c-0.8,0-1.5-0.4-1.5-0.9l0,0c0-0.4,0.4-0.7,1-0.9l11.9-2.7
		c0.3-0.1,0.7-0.1,1,0l11.3,2.7C222.7,238.8,223,239.2,223,239.5z"/>
</g>
<rect x="199.9" y="130.2" transform="matrix(0.9953 -9.678709e-002 9.678709e-002 0.9953 -12.4499 20.9014)" fill="#FFE0B2" width="18.6" height="17.2"/>
<path fill="#FFE0B2" d="M213.3,138.4l-8.5,0.6c-2.7,0.2-5-1.8-5.1-4.5l-0.2-3.8c-0.2-2.7,1.8-5,4.5-5.1l8.5-0.6
	c2.7-0.2,5,1.8,5.1,4.5l0.2,3.8C218,136,215.9,138.3,213.3,138.4z"/>
<path fill="#FFE0B2" d="M205,142.1L205,142.1c0.9-1.4,0.6-3.3-0.8-4.2l-8.1-5.5c-1.4-0.9-3.3-0.6-4.2,0.8v0
	c-0.9,1.4-0.6,3.3,0.8,4.2l8.1,5.5C202.1,143.9,204,143.5,205,142.1z"/>
<path fill="#FFE0B2" d="M201.4,132.5L201.4,132.5c1.2-0.2,2-1.3,1.7-2.5l-2.3-12.7c-0.2-1.2-1.3-2-2.5-1.7l0,0
	c-1.2,0.2-2,1.3-1.7,2.5l2.3,12.7C199.1,132,200.2,132.7,201.4,132.5z"/>
<path fill="#FFE0B2" d="M205.5,128.4L205.5,128.4c1.2,0,2.1-1,2.1-2.2l-0.2-11.6c0-1.2-1-2.1-2.2-2.1h0c-1.2,0-2.1,1-2.1,2.2
	l0.2,11.6C203.4,127.5,204.3,128.5,205.5,128.4z"/>
<path fill="#FFE0B2" d="M210.7,128.4L210.7,128.4c1.2,0.1,2.2-0.8,2.3-2l0.7-11.5c0.1-1.2-0.8-2.2-2-2.3l0,0c-1.2-0.1-2.2,0.8-2.3,2
	l-0.7,11.5C208.6,127.3,209.5,128.4,210.7,128.4z"/>
<path fill="#FFE0B2" d="M215.3,131.6L215.3,131.6c1.2,0.2,2.3-0.7,2.4-1.8l1.6-11.5c0.2-1.2-0.7-2.3-1.8-2.4l0,0
	c-1.2-0.2-2.3,0.7-2.4,1.8l-1.6,11.5C213.3,130.3,214.1,131.4,215.3,131.6z"/>
<path fill="#FFE0B2" d="M159.9,240.5L81.9,241c-4.4,0-8-3.5-8.1-8v0c0-4.4,3.5-8,8-8.1l77.9-0.5c4.4,0,8,3.5,8.1,8v0
	C167.9,236.9,164.3,240.5,159.9,240.5z"/>
<rect x="255.6" y="191" transform="matrix(8.264542e-002 -0.9966 0.9966 8.264542e-002 54.8479 447.8929)" opacity="0.23" width="30.2" height="6.3"/>
<rect x="273.1" y="168.1" transform="matrix(8.264542e-002 -0.9966 0.9966 8.264542e-002 93.6263 444.3218)" opacity="0.23" width="30.2" height="6.3"/>
<rect x="233.2" y="210.2" transform="matrix(0.3221 -0.9467 0.9467 0.3221 -33.6525 379.6402)" opacity="0.23" width="30.2" height="6.3"/>
<path fill="#D74527" d="M280,172.5l-0.2,2.5l0,0l-0.1,0.1c-2.4,1.2-5,1.8-7.7,1.5c-2.8-0.2-5.4-1.2-7.5-2.8l0.2-2.5
	c2.2,1.6,4.8,2.6,7.6,2.9C275,174.4,277.6,173.7,280,172.5z"/>
</svg>
